HIERARCHY
ROOT SpineBase
{
  OFFSET 0.000000 0.000000 0.000000
  CHANNELS 6 Xposition Yposition Zposition Zrotation Xrotation Yrotation
  JOINT SpineMid
  {
    OFFSET 0.000000 24.782274 0.000000
    CHANNELS 3 Zrotation Xrotation Yrotation
    JOINT SpineShoulder
    {
      OFFSET -0.151248 18.468238 -0.566712
      CHANNELS 3 Zrotation Xrotation Yrotation
      JOINT Neck
      {
        OFFSET -0.122035 6.136049 -0.450326
        CHANNELS 3 Zrotation Xrotation Yrotation
        JOINT Head
        {
          OFFSET 0.465009 9.553172 3.960562
          CHANNELS 3 Zrotation Xrotation Yrotation
          End Site
          {
            OFFSET 0 0 0
          }
        }
      }
      JOINT ShoulderLeft
      {
        OFFSET -4.325006 -4.552526 12.051616
        CHANNELS 3 Zrotation Xrotation Yrotation
        JOINT ElbowLeft
        {
          OFFSET -1.958915 -25.726608 2.947511
          CHANNELS 3 Zrotation Xrotation Yrotation
          JOINT WristLeft
          {
            OFFSET -1.209187 -22.345392 3.397147
            CHANNELS 3 Zrotation Xrotation Yrotation
            JOINT HandLeft
            {
              OFFSET -1.748701 -6.801340 -1.928502
              CHANNELS 3 Zrotation Xrotation Yrotation
              JOINT HandTipLeft
              {
                OFFSET 1.779183 -6.254584 0.305820
                CHANNELS 3 Zrotation Xrotation Yrotation
                End Site
                {
                  OFFSET 0 0 0
                }
              }
              JOINT ThumbLeft
              {
                OFFSET -3.160648 -0.172795 -1.066830
                CHANNELS 3 Zrotation Xrotation Yrotation
                End Site
                {
                  OFFSET 0 0 0
                }
              }
            }
          }
        }
      }
      JOINT ShoulderRight
      {
        OFFSET 4.519943 -2.100725 -10.189238
        CHANNELS 3 Zrotation Xrotation Yrotation
        JOINT ElbowRight
        {
          OFFSET -0.126086 -22.041322 -5.292586
          CHANNELS 3 Zrotation Xrotation Yrotation
          JOINT WristRight
          {
            OFFSET -6.164273 -20.707392 -3.169748
            CHANNELS 3 Zrotation Xrotation Yrotation
            JOINT HandRight
            {
              OFFSET -2.136010 -8.374117 1.181751
              CHANNELS 3 Zrotation Xrotation Yrotation
              JOINT HandTipRight
              {
                OFFSET -5.068747 -6.156879 -1.416064
                CHANNELS 3 Zrotation Xrotation Yrotation
                End Site
                {
                  OFFSET 0 0 0
                }
              }
              JOINT ThumbRight
              {
                OFFSET 4.797667 -0.790263 -0.111673
                CHANNELS 3 Zrotation Xrotation Yrotation
                End Site
                {
                  OFFSET 0 0 0
                }
              }
            }
          }
        }
      }
    }
  }
  JOINT HipLeft
  {
    OFFSET -2.529007 -0.004921 1.129659
    CHANNELS 3 Zrotation Xrotation Yrotation
    JOINT KneeLeft
    {
      OFFSET 4.824051 -41.671392 3.688952
      CHANNELS 3 Zrotation Xrotation Yrotation
      JOINT AnkleLeft
      {
        OFFSET 8.385695 -31.184930 -3.786347
        CHANNELS 3 Zrotation Xrotation Yrotation
        JOINT FootLeft
        {
          OFFSET -9.628418 -2.567067 -6.400640
          CHANNELS 3 Zrotation Xrotation Yrotation
          End Site
          {
            OFFSET 0 0 0
          }
        }
      }
    }
  }
  JOINT HipRight
  {
    OFFSET 1.135918 1.681781 -6.720704
    CHANNELS 3 Zrotation Xrotation Yrotation
    JOINT KneeRight
    {
      OFFSET 6.349803 -39.007304 -3.893173
      CHANNELS 3 Zrotation Xrotation Yrotation
      JOINT AnkleRight
      {
        OFFSET 5.990879 -32.633175 3.322267
        CHANNELS 3 Zrotation Xrotation Yrotation
        JOINT FootRight
        {
          OFFSET -6.490992 -4.220901 -3.444784
          CHANNELS 3 Zrotation Xrotation Yrotation
          End Site
          {
            OFFSET 0 0 0
          }
        }
      }
    }
  }
}
MOTION
Frames: 16
Frame Time: 0.033333
78.713026 80.199509 315.576974 -0.000000 0.000000 64.974582 -0.000000 0.000000 -64.974582 -0.000000 0.000000 0.000000 -0.000000 0.000000 0.000000 0.000000 0.000000 0.000000 -0.000000 0.000000 0.000000 -0.000000 0.000000 0.000000 -0.000000 0.000000 0.000000 -0.000000 0.000000 0.000000 0.000000 0.000000 0.000000 0.000000 0.000000 0.000000 -0.000000 0.000000 0.000000 -0.000000 0.000000 0.000000 -0.000000 0.000000 0.000000 -0.000000 0.000000 0.000000 0.000000 0.000000 0.000000 0.000000 0.000000 0.000000 -0.000000 0.000000 -64.974582 -0.000000 0.000000 0.000000 -0.000000 0.000000 0.000000 0.000000 0.000000 0.000000 -0.000000 0.000000 -64.974582 -0.000000 0.000000 0.000000 -0.000000 0.000000 0.000000 0.000000 0.000000 0.000000
78.692520 80.127715 315.930006 -0.092699 -0.168333 65.469611 0.191626 -0.014444 -65.469723 -0.000000 0.000000 0.000000 0.402433 -1.211258 -0.104100 0.000000 0.000000 0.000000 -0.000000 0.000000 0.000000 -0.740944 3.813544 -0.295812 1.145154 1.379410 -1.080884 -7.246242 -0.454461 2.155380 0.000000 0.000000 0.000000 0.000000 0.000000 0.000000 -0.800768 -0.007399 0.192270 -0.863565 -1.698495 0.544164 3.320238 -1.238984 0.185487 -1.350219 1.303978 0.324867 0.000000 0.000000 0.000000 0.000000 0.000000 0.000000 0.191626 -0.014444 -65.469723 0.303242 1.237861 0.292190 4.963430 -5.174270 2.091356 0.000000 0.000000 0.000000 0.191626 -0.014444 -65.469723 -0.000000 0.000000 0.000000 -3.564385 3.215151 -1.807582 0.000000 0.000000 0.000000
78.670275 80.072337 316.232379 -0.179978 -0.314175 65.820558 0.360330 -0.035504 -65.820939 -0.000000 0.000000 0.000000 0.782044 -2.196020 -0.204019 0.000000 0.000000 0.000000 -0.000000 0.000000 0.000000 -1.382337 7.174840 -0.516846 2.381157 2.969906 -2.112608 -14.001929 -1.417117 3.488317 0.000000 0.000000 0.000000 0.000000 0.000000 0.000000 -1.480099 -0.008827 0.355338 -1.418625 -3.013623 0.907382 6.204564 -2.689602 0.479531 -2.649202 2.321440 0.838836 0.000000 0.000000 0.000000 0.000000 0.000000 0.000000 1.539346 0.180743 -65.662278 0.241934 0.995054 0.353021 12.096525 -10.977040 5.667646 0.000000 0.000000 0.000000 0.360330 -0.035504 -65.820939 -0.000000 0.000000 0.000000 -6.169945 5.688273 -3.032512 0.000000 0.000000 0.000000
78.646292 80.033373 316.484091 -0.261782 -0.437363 66.051673 0.505971 -0.061717 -66.052400 -0.000000 0.000000 0.000000 1.141142 -2.963381 -0.302708 0.000000 0.000000 0.000000 -0.000000 0.000000 0.000000 -1.922464 10.029313 -0.676101 3.668329 4.494652 -3.034338 -19.784506 -2.616532 4.056199 0.000000 0.000000 0.000000 0.000000 0.000000 0.000000 -2.037935 -0.003362 0.489313 -1.750532 -4.018242 1.147136 8.638405 -4.036696 0.808221 -3.810248 2.877707 1.552822 0.000000 0.000000 0.000000 0.000000 0.000000 0.000000 2.119545 0.237109 -65.836113 0.291807 1.171458 0.438731 21.882527 -16.948323 11.167364 0.000000 0.000000 0.000000 0.505971 -0.061717 -66.052400 -0.000000 0.000000 0.000000 -8.077019 7.559851 -3.874056 0.000000 0.000000 0.000000
78.620571 80.010825 316.685143 -0.338060 -0.537748 66.177612 0.628473 -0.092065 -66.178693 -0.000000 0.000000 0.000000 1.481855 -3.521236 -0.402762 0.000000 0.000000 0.000000 -0.000000 0.000000 0.000000 -2.360254 12.344228 -0.786221 4.952477 5.677501 -3.782910 -24.336992 -3.745143 4.114386 0.000000 0.000000 0.000000 0.000000 0.000000 0.000000 -2.474945 0.009689 0.594442 -1.913120 -4.763065 1.299223 10.562952 -4.995581 1.075135 -4.739508 2.804764 2.457272 0.000000 0.000000 0.000000 0.000000 0.000000 0.000000 2.571509 0.276924 -65.918919 0.297451 1.138343 0.465874 33.908779 -22.005207 18.392977 0.000000 0.000000 0.000000 0.628473 -0.092065 -66.178693 -0.544544 -0.628940 -0.173945 -8.956584 9.538971 -4.180432 0.000000 0.000000 0.000000
78.593111 80.004692 316.835535 -0.408762 -0.615195 66.205939 0.727814 -0.125825 -66.207334 -0.000000 0.000000 0.000000 1.806162 -3.876094 -0.506486 0.000000 0.000000 0.000000 -0.000000 0.000000 0.000000 -2.694993 14.102973 -0.858442 6.175285 6.284550 -4.299170 -27.569227 -4.551029 3.988666 0.000000 0.000000 0.000000 0.000000 0.000000 0.000000 -2.792424 0.030791 0.671082 -1.937717 -5.281331 1.385340 11.898486 -5.338715 1.183462 -5.348096 1.973324 3.524858 0.000000 0.000000 0.000000 0.000000 0.000000 0.000000 2.894556 0.302808 -65.918109 0.259844 0.897882 0.434881 46.247199 -25.144247 25.870268 0.000000 0.000000 0.000000 0.727814 -0.125825 -66.207334 -0.618554 -0.692106 -0.193842 -9.857465 10.576350 -4.530617 0.000000 0.000000 0.000000
78.548894 80.016778 316.962418 -0.508748 -0.671036 66.060889 0.819736 -0.192712 -66.062489 -0.000000 0.000000 0.000000 2.168501 -4.260316 -0.621133 0.000000 0.000000 0.000000 -0.000000 0.000000 0.000000 -3.035307 15.565600 -0.911756 7.540244 5.973333 -4.516230 -30.128804 -3.934062 4.377691 0.000000 0.000000 0.000000 0.000000 0.000000 0.000000 -2.860777 0.138271 0.689431 -2.151552 -5.937769 1.531400 14.136267 -4.961019 1.177927 -5.819033 -1.717177 6.342127 0.000000 0.000000 0.000000 0.000000 0.000000 0.000000 3.082168 0.265882 -65.758436 0.092936 0.507631 0.362091 57.833407 -27.328677 30.180021 0.000000 0.000000 0.000000 1.623012 -0.038399 -65.949722 -0.828068 -1.450736 -0.310643 -12.009852 12.526791 -5.069090 0.000000 0.000000 0.000000
78.509426 80.046118 317.018611 -0.581090 -0.755877 65.810485 0.927601 -0.220358 -65.812535 -0.000000 0.000000 0.000000 2.504466 -3.980080 -0.769514 0.000000 0.000000 0.000000 -0.000000 0.000000 0.000000 -3.128934 16.256964 -0.933333 8.628790 4.471415 -4.323459 -30.551848 -2.334245 5.302686 0.000000 0.000000 0.000000 0.000000 0.000000 0.000000 -2.987266 0.165682 0.720473 -1.781798 -6.171849 1.528498 14.698225 -3.797748 0.894346 -5.087467 -3.926813 7.250003 0.000000 0.000000 0.000000 0.000000 0.000000 0.000000 3.270103 0.294834 -65.498427 -0.120301 -0.993926 0.002886 61.516695 -27.276595 29.845955 0.000000 0.000000 0.000000 1.849460 -0.087849 -65.690098 -0.930105 -1.448834 -0.306026 -10.239790 10.954480 -4.813050 0.000000 0.000000 0.000000
78.477051 80.094034 316.980292 -0.635046 -0.804290 65.499772 0.995208 -0.244350 -65.502107 -0.000000 0.000000 0.000000 2.813242 -3.296875 -0.937334 0.000000 0.000000 0.000000 -0.000000 0.000000 0.000000 -2.958700 16.155937 -0.928704 8.895215 2.609496 -3.883158 -28.883206 -2.452155 5.206196 0.000000 0.000000 0.000000 0.000000 0.000000 0.000000 -2.997594 0.168677 0.723025 -1.377843 -5.996069 1.441877 13.862260 -1.682272 0.225869 -4.639637 -6.916494 8.516311 0.000000 0.000000 0.000000 0.000000 0.000000 0.000000 3.222438 0.298335 -65.204012 -0.441735 -2.249443 -0.307817 56.249493 -25.984065 24.565850 0.000000 0.000000 0.000000 1.988460 -0.156502 -65.378857 -1.279210 -1.686065 -0.377858 -9.970070 11.192855 -4.795862 0.000000 0.000000 0.000000
78.454993 80.140773 316.945113 -0.653817 -0.789640 65.324568 0.077668 -0.158002 -65.351240 -0.093988 -0.031425 -0.036603 3.595157 -2.034765 -1.040698 0.000000 0.000000 0.000000 0.570983 0.816988 0.054106 -2.718275 15.786078 -0.914168 8.246684 0.950322 -3.350339 -26.454511 -2.622159 4.855553 0.000000 0.000000 0.000000 0.000000 0.000000 0.000000 -2.304506 0.898755 0.786953 -1.076560 -5.363025 1.288844 12.708148 0.932085 -0.555264 -4.185124 -9.537750 8.966548 0.000000 0.000000 0.000000 0.000000 0.000000 0.000000 3.062956 0.302838 -65.050711 -0.360068 -2.118349 -0.283427 64.505083 -25.701719 33.021919 0.000000 0.000000 0.000000 2.049436 -0.225108 -65.203666 -0.927024 -1.641459 -0.308658 -10.385334 11.078107 -4.818309 0.000000 0.000000 0.000000
78.448933 80.192799 316.860511 -0.625958 -0.700485 65.152894 -0.096688 -0.211646 -65.180529 -0.105908 -0.105614 -0.040096 3.692360 -1.487659 -1.110815 0.000000 0.000000 0.000000 0.579419 0.983348 0.057139 -2.352616 15.188992 -0.887764 7.725940 -1.999613 -2.484584 -22.671486 -4.306651 3.512684 0.000000 0.000000 0.000000 0.000000 0.000000 0.000000 -2.158609 1.147790 0.764188 -0.429342 -4.424992 0.962971 10.762135 3.230400 -1.093402 -3.935154 -9.776201 7.287672 0.000000 0.000000 0.000000 0.000000 0.000000 0.000000 2.703391 0.291250 -64.915728 -0.253603 -1.874006 -0.243270 81.488494 -21.755625 49.923972 0.000000 0.000000 0.000000 1.981347 -0.279264 -65.035883 -0.462001 -0.979182 -0.117414 -10.851990 10.411431 -5.060761 0.000000 0.000000 0.000000
78.435394 80.223053 316.848553 -0.608547 -0.733855 64.933891 -0.204210 -0.249804 -64.963443 -0.122187 -0.158710 -0.043820 3.731261 -0.961740 -1.153776 0.000000 0.000000 0.000000 0.589668 1.184001 0.060772 -1.942918 14.278791 -0.844006 6.748754 -5.821355 -1.282339 -19.118630 -4.039169 2.241909 0.000000 0.000000 0.000000 0.000000 0.000000 0.000000 -2.031967 1.330923 0.746575 -0.032396 -3.472242 0.677523 9.770496 5.415039 -1.608541 -2.803787 -10.416478 5.899028 0.000000 0.000000 0.000000 0.000000 0.000000 0.000000 2.573728 0.337276 -64.719900 -0.182943 -1.739701 -0.220128 63.932512 -22.383128 41.258999 0.000000 0.000000 0.000000 2.126932 -0.244570 -64.804976 -0.516542 -1.088004 -0.130686 -10.843778 10.380476 -5.031452 0.000000 0.000000 0.000000
78.420203 80.227558 316.857083 -0.620242 -0.757957 64.870381 -0.290768 -0.296041 -64.902278 -0.134969 -0.215555 -0.047677 3.790807 -0.557289 -1.193188 0.000000 0.000000 0.000000 0.609076 1.363167 0.064617 -1.514463 13.579666 -0.802165 5.574640 -10.461461 0.131728 -17.412237 -2.122399 0.823587 0.000000 0.000000 0.000000 0.000000 0.000000 0.000000 -1.912296 1.511550 0.732007 0.351607 -2.774128 0.448638 10.547840 7.411982 -2.017341 -2.207141 -10.353811 3.765668 0.000000 0.000000 0.000000 0.000000 0.000000 0.000000 2.412752 0.303053 -64.681556 -0.135193 -1.554696 -0.193585 56.070262 -21.837171 37.475574 0.000000 0.000000 0.000000 2.300250 -0.232516 -64.724246 -0.570245 -1.224397 -0.148779 -10.860870 10.322035 -4.949877 0.000000 0.000000 0.000000
78.388258 80.206828 316.855569 -0.639858 -0.802953 64.870906 -0.330160 -0.321519 -64.904942 -0.142505 -0.256526 -0.050750 3.742011 -0.219126 -1.182477 0.000000 0.000000 0.000000 0.629641 1.495678 0.067797 -0.974981 12.531571 -0.733923 3.662188 -16.291778 1.917353 -13.505286 -0.613091 -1.802000 0.000000 0.000000 0.000000 0.000000 0.000000 0.000000 -1.759697 1.637520 0.705584 0.625926 -2.100974 0.241297 12.206063 8.730542 -2.210974 -3.167171 -10.872870 2.491683 0.000000 0.000000 0.000000 0.000000 0.000000 0.000000 2.351518 0.217975 -64.694392 -0.165801 -1.418079 -0.180733 50.374565 -21.511535 33.356558 0.000000 0.000000 0.000000 2.438671 -0.231674 -64.715450 -0.609057 -1.304895 -0.158892 -10.868127 10.296347 -4.914223 0.000000 0.000000 0.000000
78.339296 80.189403 316.835392 -0.680269 -0.776285 64.703293 -0.327383 -0.364795 -64.738008 -0.137873 -0.281230 -0.051031 3.626470 -0.272501 -1.130151 0.000000 0.000000 0.000000 0.626366 1.510131 0.067808 -0.409675 11.318045 -0.645742 1.479560 -23.634013 4.104492 -9.907812 8.938594 -2.828970 0.000000 0.000000 0.000000 0.000000 0.000000 0.000000 -2.005841 1.329962 0.766240 1.332123 -1.184593 -0.051802 14.783034 9.856796 -2.325705 -4.092678 -11.125648 0.802798 0.000000 0.000000 0.000000 0.000000 0.000000 0.000000 2.051986 0.018589 -64.561168 -0.182440 -1.086444 -0.143561 46.995429 -21.424482 29.695455 0.000000 0.000000 0.000000 2.493935 -0.275623 -64.540278 -0.638481 -1.358933 -0.165417 -10.898795 10.258834 -4.846058 0.000000 0.000000 0.000000
78.270401 80.174456 316.782145 -0.749264 -0.778785 64.554471 -0.302701 -0.379023 -64.591279 -0.132283 -0.278447 -0.052565 3.596656 -0.109035 -1.109298 0.000000 0.000000 0.000000 0.667444 1.494250 0.070059 0.061995 9.985295 -0.544951 0.557040 -28.541991 5.678393 -8.693216 14.348655 -4.190822 0.000000 0.000000 0.000000 0.000000 0.000000 0.000000 -1.790618 1.413225 0.723052 2.458071 0.051319 -0.591723 14.498268 8.848918 -1.392805 -4.831298 -10.143977 -0.547864 0.000000 0.000000 0.000000 0.000000 0.000000 0.000000 1.025144 -0.341995 -64.556503 0.428443 0.817130 0.164349 45.087518 -22.986402 23.986758 0.000000 0.000000 0.000000 2.518290 -0.380931 -64.398183 -0.680321 -1.329721 -0.156795 -10.949606 10.207668 -4.745948 0.000000 0.000000 0.000000
